<?xml version="1.0" encoding="utf-8"?>
<!-- Generator: Adobe Illustrator 16.0.0, SVG Export Plug-In . SVG Version: 6.00 Build 0)  -->
<!DOCTYPE svg PUBLIC "-//W3C//DTD SVG 1.1//EN" "http://www.w3.org/Graphics/SVG/1.1/DTD/svg11.dtd">
<svg version="1.1" id="Layer_1" xmlns="http://www.w3.org/2000/svg" xmlns:xlink="http://www.w3.org/1999/xlink" x="0px" y="0px"
	 width="640.1px" height="417.6px" viewBox="0 0 640.1 417.6" style="enable-background:new 0 0 640.1 417.6;" xml:space="preserve"
	>
<style type="text/css">
<![CDATA[
	.st0{fill:#B9B8B9;}
	.st1{fill:#231F20;}
	.st2{display:inline;}
	.st3{display:none;}
]]>
</style>
<g>
	<polygon class="st0" points="193.2,356.3 43.2,90.8 378.5,417.8 71.7,0 193.2,356.3 	"/>
</g>
<g>
	<g>
		<path class="st1" d="M14.7,309.2v-95.9h29.1V251h56.9v-37.8h29.1v95.9h-29.1v-41.9H43.8v41.9H14.7z"/>
		<path class="st1" d="M207.7,290.7l23,2.6c-3,5.6-7.6,9.9-14,12.8c-6.4,2.9-14.3,4.4-23.9,4.4c-15.1,0-26.4-3.3-33.6-9.9
			c-5.7-5.3-8.6-12-8.6-20c0-9.6,3.8-17.2,11.3-22.6c7.5-5.5,17.1-8.2,28.6-8.2c13,0,23.2,2.9,30.7,8.6c7.5,5.7,11.1,14.4,10.7,26.2
			h-57.7c0.2,4.6,2,8.1,5.6,10.6c3.6,2.5,8,3.8,13.3,3.8c3.6,0,6.6-0.7,9.1-2S206.4,293.6,207.7,290.7z M209,275.2
			c-0.2-4.4-1.9-7.8-5.2-10.1c-3.3-2.3-7.3-3.5-12-3.5c-5,0-9.2,1.2-12.5,3.7c-3.3,2.4-4.9,5.8-4.8,10H209z"/>
		<path class="st1" d="M250.6,243.2V229h23.1v14.2H250.6z M250.6,309.2v-58.1h23.1v58.1H250.6z"/>
		<path class="st1" d="M377.2,309.2h-21.4v-8.5c-3.6,3.3-7.8,5.8-12.6,7.4s-9.7,2.4-14.6,2.4c-10,0-18.6-2.7-25.7-8.1
			c-7.1-5.4-10.7-12.9-10.7-22.5c0-9.8,3.5-17.3,10.4-22.4c6.9-5.1,15.7-7.7,26.3-7.7c9.7,0,18.2,2.7,25.3,8.1V229h23V309.2z
			 M315.7,278.9c0,6.2,1.3,10.7,3.9,13.5c3.7,4,8.9,6,15.6,6c5.3,0,9.8-1.5,13.5-4.5c3.7-3,5.6-7.5,5.6-13.5
			c0-6.7-1.8-11.5-5.4-14.4c-3.6-2.9-8.2-4.4-13.9-4.4c-5.5,0-10,1.4-13.7,4.3S315.7,273.1,315.7,278.9z"/>
		<path class="st1" d="M422,309.2H399v-58.1h21.4v8.3c3.7-3.9,7-6.5,9.9-7.7c2.9-1.2,6.2-1.9,10-1.9c5.3,0,10.3,1,15.2,2.9
			l-7.1,13.4c-3.9-1.7-7.5-2.5-10.8-2.5c-3.2,0-6,0.6-8.2,1.8c-2.2,1.2-4,3.3-5.3,6.4c-1.3,3.1-1.9,9.6-1.9,19.5V309.2z"/>
		<path class="st1" d="M515.8,290.7l23,2.6c-3,5.6-7.6,9.9-14,12.8c-6.4,2.9-14.3,4.4-23.9,4.4c-15.1,0-26.4-3.3-33.6-9.9
			c-5.7-5.3-8.6-12-8.6-20c0-9.6,3.8-17.2,11.3-22.6c7.5-5.5,17.1-8.2,28.6-8.2c13,0,23.2,2.9,30.7,8.6c7.5,5.7,11.1,14.4,10.7,26.2
			h-57.8c0.2,4.6,2,8.1,5.6,10.6c3.6,2.5,8,3.8,13.3,3.8c3.6,0,6.6-0.7,9.1-2S514.5,293.6,515.8,290.7z M517.1,275.2
			c-0.2-4.4-1.9-7.8-5.2-10.1c-3.3-2.3-7.3-3.5-12-3.5c-5,0-9.2,1.2-12.5,3.7c-3.3,2.4-4.9,5.8-4.8,10H517.1z"/>
		<path class="st1" d="M576,268.8l-20.9-2.5c2.3-5.6,6.4-9.8,12.1-12.5c5.7-2.7,14.3-4,25.6-4c10.3,0,17.9,0.8,23,2.4
			c5,1.6,8.6,3.7,10.6,6.2c2.1,2.5,3.1,7.1,3.1,13.8l-0.2,17.9c0,5.1,0.4,8.9,1.1,11.3c0.7,2.4,2.1,5,4.1,7.8h-22.8
			c-0.6-1-1.3-2.5-2.2-4.5c-0.4-0.9-0.7-1.5-0.8-1.8c-3.9,2.6-8.2,4.5-12.6,5.7c-4.5,1.3-9.3,1.9-14.4,1.9c-9,0-16-1.6-21.2-4.9
			c-5.2-3.2-7.8-7.3-7.8-12.3c0-3.3,1.2-6.2,3.5-8.8c2.3-2.6,5.6-4.5,9.9-5.9c4.2-1.4,10.3-2.6,18.3-3.6c10.8-1.3,18.2-2.6,22.4-3.8
			v-1.5c0-3-1.1-5.1-3.3-6.3c-2.2-1.3-6.3-1.9-12.4-1.9c-4.1,0-7.3,0.5-9.6,1.6C579.3,264.2,577.4,266.1,576,268.8z M606.8,281.3
			c-3,0.7-7.6,1.4-14,2.4c-6.4,0.9-10.6,1.8-12.6,2.7c-3,1.4-4.5,3.2-4.5,5.4c0,2.2,1.2,4,3.6,5.6c2.4,1.6,5.5,2.4,9.2,2.4
			c4.2,0,8.1-0.9,11.9-2.7c2.8-1.4,4.6-3.1,5.5-5.1c0.6-1.3,0.9-3.8,0.9-7.5V281.3z"/>
	</g>
</g>
</svg>
