<?xml version="1.0" encoding="UTF-8"?>
<svg width="621px" height="418px" viewBox="0 0 621 418" version="1.1" xmlns="http://www.w3.org/2000/svg" xmlns:xlink="http://www.w3.org/1999/xlink">
  <title>Heidrea Logo</title>
  <defs></defs>
  <g id="Page-1" stroke="none" stroke-width="1" fill="none" fill-rule="evenodd">
    <g id="heidrea-noComm-2015-silver-nodrop-copy">
      <polygon id="Bolt" fill="#333333" points="179.2 356.3 29.2 90.8 364.5 417.8 57.7 0"></polygon>
      <g id="Group" transform="translate(0.000000, 213.000000)" fill="#FFFFFF">
        <path d="M562,55.8 L541.1,53.3 C543.4,47.7 547.5,43.5 553.2,40.8 C558.9,38.1 567.5,36.8 578.8,36.8 C589.1,36.8 596.7,37.6 601.8,39.2 C606.8,40.8 610.4,42.9 612.4,45.4 C614.5,47.9 615.5,52.5 615.5,59.2 L615.3,77.1 C615.3,82.2 615.7,86 616.4,88.4 C617.1,90.8 618.5,93.4 620.5,96.2 L597.7,96.2 C597.1,95.2 596.4,93.7 595.5,91.7 C595.1,90.8 594.8,90.2 594.7,89.9 C590.8,92.5 586.5,94.4 582.1,95.6 C577.6,96.9 572.8,97.5 567.7,97.5 C558.7,97.5 551.7,95.9 546.5,92.6 C541.3,89.4 538.7,85.3 538.7,80.3 C538.7,77 539.9,74.1 542.2,71.5 C544.5,68.9 547.8,67 552.1,65.6 C556.3,64.2 562.4,63 570.4,62 C581.2,60.7 588.6,59.4 592.8,58.2 L592.8,56.7 C592.8,53.7 591.7,51.6 589.5,50.4 C587.3,49.1 583.2,48.5 577.1,48.5 C573,48.5 569.8,49 567.5,50.1 C565.3,51.2 563.4,53.1 562,55.8 L562,55.8 Z M592.8,68.3 C589.8,69 585.2,69.7 578.8,70.7 C572.4,71.6 568.2,72.5 566.2,73.4 C563.2,74.8 561.7,76.6 561.7,78.8 C561.7,81 562.9,82.8 565.3,84.4 C567.7,86 570.8,86.8 574.5,86.8 C578.7,86.8 582.6,85.9 586.4,84.1 C589.2,82.7 591,81 591.9,79 C592.5,77.7 592.8,75.2 592.8,71.5 L592.8,68.3 L592.8,68.3 Z" id="a"></path>
        <path d="M501.8,77.7 L524.8,80.3 C521.8,85.9 517.2,90.2 510.8,93.1 C504.4,96 496.5,97.5 486.9,97.5 C471.8,97.5 460.5,94.2 453.3,87.6 C447.6,82.3 444.7,75.6 444.7,67.6 C444.7,58 448.5,50.4 456,45 C463.5,39.5 473.1,36.8 484.6,36.8 C497.6,36.8 507.8,39.7 515.3,45.4 C522.8,51.1 526.4,59.8 526,71.6 L468.2,71.6 C468.4,76.2 470.2,79.7 473.8,82.2 C477.4,84.7 481.8,86 487.1,86 C490.7,86 493.7,85.3 496.2,84 C498.7,82.7 500.5,80.6 501.8,77.7 L501.8,77.7 Z M503.1,62.2 C502.9,57.8 501.2,54.4 497.9,52.1 C494.6,49.8 490.6,48.6 485.9,48.6 C480.9,48.6 476.7,49.8 473.4,52.3 C470.1,54.7 468.5,58.1 468.6,62.3 L503.1,62.3 L503.1,62.2 Z" id="e"></path>
        <path d="M408,96.2 L385,96.2 L385,38.1 L406.4,38.1 L406.4,46.4 C410.1,42.5 413.4,39.9 416.3,38.7 C419.2,37.5 422.5,36.8 426.3,36.8 C431.6,36.8 436.6,37.8 441.5,39.7 L434.4,53.1 C430.5,51.4 426.9,50.6 423.6,50.6 C420.4,50.6 417.6,51.2 415.4,52.4 C413.2,53.6 411.4,55.7 410.1,58.8 C408.8,61.9 408.2,68.4 408.2,78.3 L408.2,96.2 L408,96.2 Z" id="r"></path>
        <path d="M363.2,96.2 L341.8,96.2 L341.8,87.7 C338.2,91 334,93.5 329.2,95.1 C324.4,96.7 319.5,97.5 314.6,97.5 C304.6,97.5 296,94.8 288.9,89.4 C281.8,84 278.2,76.5 278.2,66.9 C278.2,57.1 281.7,49.6 288.6,44.5 C295.5,39.4 304.3,36.8 314.9,36.8 C324.6,36.8 333.1,39.5 340.2,44.9 L340.2,16 L363.2,16 L363.2,96.2 L363.2,96.2 Z M301.7,65.9 C301.7,72.1 303,76.6 305.6,79.4 C309.3,83.4 314.5,85.4 321.2,85.4 C326.5,85.4 331,83.9 334.7,80.9 C338.4,77.9 340.3,73.4 340.3,67.4 C340.3,60.7 338.5,55.9 334.9,53 C331.3,50.1 326.7,48.6 321,48.6 C315.5,48.6 311,50 307.3,52.9 C303.6,55.8 301.7,60.1 301.7,65.9 L301.7,65.9 Z" id="d"></path>
        <path d="M236.6,30.2 L236.6,16 L259.7,16 L259.7,30.2 L236.6,30.2 L236.6,30.2 Z M236.6,96.2 L236.6,38.1 L259.7,38.1 L259.7,96.2 L236.6,96.2 L236.6,96.2 Z" id="i"></path>
        <path d="M193.7,77.7 L216.7,80.3 C213.7,85.9 209.1,90.2 202.7,93.1 C196.3,96 188.4,97.5 178.8,97.5 C163.7,97.5 152.4,94.2 145.2,87.6 C139.5,82.3 136.6,75.6 136.6,67.6 C136.6,58 140.4,50.4 147.9,45 C155.4,39.5 165,36.8 176.5,36.8 C189.5,36.8 199.7,39.7 207.2,45.4 C214.7,51.1 218.3,59.8 217.9,71.6 L160.2,71.6 C160.4,76.2 162.2,79.7 165.8,82.2 C169.4,84.7 173.8,86 179.1,86 C182.7,86 185.7,85.3 188.2,84 C190.7,82.7 192.4,80.6 193.7,77.7 L193.7,77.7 Z M195,62.2 C194.8,57.8 193.1,54.4 189.8,52.1 C186.5,49.8 182.5,48.6 177.8,48.6 C172.8,48.6 168.6,49.8 165.3,52.3 C162,54.7 160.4,58.1 160.5,62.3 L195,62.3 L195,62.2 Z" id="e"></path>
        <polygon id="H" points="0.7 96.2 0.7 0.3 29.8 0.3 29.8 38 86.7 38 86.7 0.2 115.8 0.2 115.8 96.1 86.7 96.1 86.7 54.2 29.8 54.2 29.8 96.1 0.7 96.1"></polygon>
      </g>
    </g>
  </g>
</svg>
